<svg width="30" height="30" viewBox="0 0 30 30" fill="none" xmlns="http://www.w3.org/2000/svg">
<g clip-path="url(#clip0_1_523)">
<path d="M24.9954 11.0275C23.6089 5.50399 18.0073 2.15033 12.4838 3.53686C8.16732 4.62043 5.03307 8.3511 4.71014 12.7897C1.64526 13.2952 -0.429613 16.1894 0.0758197 19.2543C0.525126 21.979 2.88608 23.9745 5.64753 23.9635H10.3345V22.0887H5.64753C3.57671 22.0887 1.89794 20.41 1.89794 18.3391C1.89794 16.2683 3.57671 14.5895 5.64753 14.5895C6.16527 14.5895 6.58493 14.1699 6.58493 13.6521C6.58024 8.99274 10.3537 5.21175 15.0131 5.20712C19.0465 5.20308 22.5185 8.05453 23.2987 12.0117C23.3363 12.2044 23.4334 12.3804 23.5764 12.515C23.7193 12.6495 23.9009 12.7358 24.0955 12.7616C26.6582 13.1265 28.4398 15.4999 28.0749 18.0625C27.7473 20.3637 25.7825 22.0771 23.4581 22.0887H19.7085V23.9635H23.4581C27.0821 23.9526 30.011 21.0058 29.9999 17.3819C29.9908 14.3652 27.926 11.7434 24.9954 11.0275Z" fill="#E07C3D"/>
<path d="M14.356 14.8615L10.6064 18.6111L11.9281 19.9328L14.0841 17.7862V26.7758H15.9589V17.7862L18.1056 19.9328L19.4273 18.6111L15.6777 14.8615C15.3121 14.498 14.7216 14.498 14.356 14.8615Z" fill="#E07C3D"/>
</g>
<defs>
<clipPath id="clip0_1_523">
<rect width="30" height="30" fill="white"/>
</clipPath>
</defs>
</svg>
