<svg xmlns="http://www.w3.org/2000/svg" version="1.1" xmlns:xlink="http://www.w3.org/1999/xlink" width="512" height="512" x="0" y="0" viewBox="0 0 512 512" style="enable-background:new 0 0 512 512" xml:space="preserve" class=""><g><path d="M10.714 501.286C17.857 508.429 27.214 512 36.571 512s18.714-3.571 25.857-10.714L256 307.714l193.571 193.571c7.143 7.143 16.5 10.714 25.857 10.714s18.714-3.571 25.857-10.714c14.286-14.286 14.286-37.429 0-51.714L307.714 256 501.286 62.429c14.286-14.286 14.286-37.429 0-51.714-14.268-14.286-37.446-14.286-51.714 0L256 204.286 62.429 10.714c-14.268-14.286-37.446-14.286-51.714 0C-3.571 25-3.571 48.143 10.714 62.428L204.286 256 10.714 449.571c-14.285 14.286-14.285 37.429 0 51.715z" fill="#ffffff" opacity="1" data-original="#000000" class=""></path></g></svg>