<svg width="16" height="16" viewBox="0 0 16 16" fill="none" xmlns="http://www.w3.org/2000/svg">
<path fill-rule="evenodd" clip-rule="evenodd" d="M7.73398 0C9.79791 0.0372972 11.7647 0.883378 13.2111 2.35617C14.6575 3.82896 15.468 5.81073 15.468 7.875C15.468 9.93927 14.6575 11.921 13.2111 13.3938C11.7647 14.8666 9.79791 15.7127 7.73398 15.75C5.67004 15.7127 3.70324 14.8666 2.25682 13.3938C0.810407 11.921 0 9.93927 0 7.875C0 5.81073 0.810407 3.82896 2.25682 2.35617C3.70324 0.883378 5.67004 0.0372972 7.73398 0ZM6.09855 10.4331L4.16998 8.50286C4.01212 8.34445 3.92347 8.12992 3.92347 7.90629C3.92347 7.68265 4.01212 7.46812 4.16998 7.30971C4.32864 7.15201 4.54327 7.06349 4.76698 7.06349C4.99069 7.06349 5.20531 7.15201 5.36398 7.30971L6.72255 8.67L10.104 5.28857C10.2624 5.13071 10.4769 5.04207 10.7005 5.04207C10.9242 5.04207 11.1387 5.13071 11.2971 5.28857C11.4548 5.44709 11.5433 5.66157 11.5433 5.88514C11.5433 6.10871 11.4548 6.32319 11.2971 6.48171L7.31826 10.4606C7.23749 10.5409 7.14132 10.6041 7.03552 10.6464C6.92972 10.6887 6.81647 10.7092 6.70256 10.7066C6.58866 10.7041 6.47644 10.6785 6.37265 10.6315C6.26886 10.5845 6.17563 10.5171 6.09855 10.4331Z" fill="#E07C3D"/>
</svg>
